<svg xmlns="http://www.w3.org/2000/svg" xmlns:xlink="http://www.w3.org/1999/xlink" preserveAspectRatio="xMidYMid" width="199" height="30" viewBox="0 0 199 30">
  <defs>
    <style>
      .icon-logo {
        fill: #fff;
        fill-rule: evenodd;
      }
    </style>
  </defs>
  <path d="M197.428,13.004 C193.935,13.004 192.232,14.756 192.232,18.215 L192.232,29.425 L186.555,29.425 L186.555,7.880 L191.882,7.880 L191.882,10.465 C193.759,7.574 195.942,7.311 198.257,7.311 L198.998,7.311 L198.998,13.135 C198.475,13.048 197.950,13.004 197.428,13.004 ZM174.812,25.484 C176.646,25.484 178.260,24.565 178.653,23.076 L184.504,23.076 C183.194,27.499 179.657,29.995 175.073,29.995 C167.913,29.995 164.334,26.054 164.334,18.259 C164.334,11.603 168.133,7.311 174.724,7.311 C181.316,7.311 184.810,11.603 184.810,20.142 L170.009,20.142 C170.184,23.382 172.017,25.484 174.812,25.484 ZM178.960,16.551 C178.872,13.354 176.776,11.821 174.550,11.821 C172.279,11.821 170.402,13.574 170.184,16.551 L178.960,16.551 ZM152.895,29.425 L149.489,16.901 L146.083,29.425 L140.277,29.425 L134.163,7.880 L140.146,7.880 L143.639,21.718 L146.607,7.880 L152.370,7.880 L155.732,21.718 L159.006,7.880 L164.856,7.880 L158.701,29.425 L152.895,29.425 ZM119.975,20.142 C120.148,23.382 121.983,25.484 124.776,25.484 C126.610,25.484 128.227,24.565 128.620,23.076 L134.470,23.076 C133.159,27.499 129.623,29.995 125.039,29.995 C117.878,29.995 114.299,26.054 114.299,18.259 C114.299,11.603 118.096,7.311 124.690,7.311 C131.283,7.311 134.774,11.603 134.774,20.142 L119.975,20.142 ZM124.515,11.821 C122.244,11.821 120.366,13.574 120.148,16.551 L128.924,16.551 C128.838,13.354 126.741,11.821 124.515,11.821 ZM106.702,7.880 L112.378,7.880 L112.378,29.425 L106.702,29.425 L106.702,7.880 ZM106.702,-0.002 L112.378,-0.002 L112.378,5.297 L106.702,5.297 L106.702,-0.002 ZM89.718,29.425 L79.896,0.349 L86.357,0.349 L92.688,20.755 L98.975,0.349 L105.261,0.349 L95.438,29.425 L89.718,29.425 ZM72.996,-0.002 L78.673,-0.002 L78.673,29.425 L72.996,29.425 L72.996,-0.002 ZM65.094,27.499 C63.741,28.987 61.470,29.995 58.590,29.995 C53.699,29.995 51.430,27.586 51.430,24.083 C51.430,17.865 55.577,17.165 61.296,16.376 C64.134,15.982 64.920,15.413 64.920,13.923 C64.920,12.522 63.523,11.690 61.296,11.690 C58.720,11.690 57.672,12.960 57.411,14.887 L52.129,14.887 C52.215,10.420 54.660,7.311 61.559,7.311 C68.368,7.311 70.726,10.376 70.726,15.807 L70.726,29.425 L65.444,29.425 C65.269,28.900 65.138,28.156 65.094,27.499 ZM61.384,20.142 C58.153,20.755 57.104,21.675 57.104,23.514 C57.104,25.134 58.065,25.922 59.856,25.922 C62.781,25.922 64.963,23.777 65.008,21.237 L65.051,18.872 C64.483,19.441 63.479,19.748 61.384,20.142 ZM40.253,25.484 C42.087,25.484 43.702,24.565 44.095,23.076 L49.946,23.076 C48.635,27.499 45.098,29.995 40.515,29.995 C33.354,29.995 29.774,26.054 29.774,18.259 C29.774,11.603 33.573,7.311 40.166,7.311 C46.758,7.311 50.250,11.603 50.250,20.142 L35.450,20.142 C35.625,23.382 37.458,25.484 40.253,25.484 ZM44.400,16.551 C44.314,13.354 42.217,11.821 39.991,11.821 C37.721,11.821 35.843,13.574 35.625,16.551 L44.400,16.551 ZM22.440,9.501 L17.027,29.425 L11.001,29.425 L5.631,9.589 L5.631,29.425 L-0.001,29.425 L-0.001,0.349 L8.905,0.349 L14.144,21.675 L19.383,0.349 L28.116,0.349 L28.116,29.425 L22.440,29.425 L22.440,9.501 Z" class="icon-logo"/>
</svg>